<svg fill="none" height="65" viewBox="0 0 184 65" width="184" xmlns="http://www.w3.org/2000/svg"><path clip-rule="evenodd" d="m118.171 23.2783c-1.648 0-2.955 1.3067-2.955 2.9543s1.307 2.9542 2.955 2.9542c1.647 0 2.954-1.3066 2.954-2.9542s-1.364-2.9543-2.954-2.9543zm0 4.8291c-.966 0-1.762-.7954-1.762-1.7612s.796-1.7612 1.762-1.7612c.965 0 1.761.7954 1.761 1.7612.057.9658-.739 1.7612-1.761 1.7612z" fill="#005cb9" fill-rule="evenodd"/><path clip-rule="evenodd" d="m24.8272 12.4275v-7.10163c0-2.78383-2.2725-5.056339-5.0564-5.056339h-.7385c-2.7839 0-5.0564 2.272509-5.0564 5.056339v8.35143c-.2272.3977-.3977.8522-.4545 1.3067-.7953-.6249-1.818-.9658-2.8974-.9658v-.3409c0-2.7838-2.27253-5.05629-5.05635-5.05629h-.51132c-2.78382 0-5.05633 2.27249-5.05633 5.05629v12.6125c0 2.5566 1.87482 4.6586 4.31777 4.9995v8.5787c0 2.7839 2.27251 5.0564 5.05634 5.0564h1.19309c2.7838 0 5.0563-2.2725 5.0563-5.0564v-6.6471c.9658-.3408 1.6476-1.2498 1.6476-2.3861 0-.1704 0-.3977-.0568-.5681.5681.2272 1.193.3409 1.818.3409h.7385c2.7839 0 5.0564-2.2726 5.0564-5.0564v-8.6355c1.0794-.1705 1.8748-1.1363 1.8748-2.2725 0-1.0795-.7954-2.0453-1.8748-2.2157zm-7.897 6.6471c1.5908 0 2.8975 1.3067 2.8975 2.8974 0 1.5908-1.3067 2.8975-2.8975 2.8975s-2.8974-1.3067-2.8974-2.8975c0-1.5907 1.3066-2.8974 2.8974-2.8974zm-2.4429-3.6929c0-1.193.9658-2.2157 2.2156-2.2157 1.1931 0 2.2157.9658 2.2157 2.2157 0 1.1931-.9658 2.2157-2.2157 2.2157-1.193-.0568-2.2156-1.0226-2.2156-2.2157zm-10.28316 3.7497v11.3057c-1.98845-.3977-3.522389-2.2157-3.522389-4.3178v-12.3283c0-2.443 1.988449-4.43143 4.431399-4.43143s4.43139 1.98843 4.43139 4.43143v.2272h-.22725c-2.84064 0-5.11315 2.2725-5.11315 5.1132zm5.3404-3.5792v10.5671c0 2.2157-1.64757 4.0906-3.80645 4.3746v-10.8512c0-2.1589 1.64757-3.9201 3.80645-4.0905zm4.37456 23.8613c0 2.2725-1.818 4.0905-4.09049 4.0905-2.27251 0-4.09052-1.818-4.09052-4.0905v-7.9538c2.6702-.1136 4.82911-2.3293 4.82911-5.0563v-10.7944c1.5907.284 2.8406 1.4771 3.2383 3.0111-.7954.7953-1.3067 1.9316-1.3067 3.1815 0 1.3067.5681 2.4429 1.4203 3.2951v.4545 2.8975c-.9658.3408-1.7044 1.2498-1.7044 2.3861s.7386 2.0453 1.7044 2.3861zm.7954-6.8743c-.909 0-1.6476-.7386-1.6476-1.6476s.7386-1.6476 1.6476-1.6476 1.6476.7386 1.6476 1.6476-.7386 1.6476-1.6476 1.6476zm9.09-7.2152c0 2.4429-1.9884 4.4314-4.4313 4.4314-1.5908 0-3.0111-.8522-3.8065-2.1589v-1.4772c.4545.1705.909.2273 1.4203.2273 2.4998 0 4.4882-1.9885 4.4882-4.4882 0-1.818-1.0226-3.352-2.5566-4.0905.625-.5682 1.0227-1.4204 1.0227-2.3862 0-1.818-1.4772-3.2383-3.2384-3.2383-.6817 0-1.2498.1704-1.7611.5113v-6.93114c0-2.44295 1.9884-4.4314 4.4314-4.4314 2.4429 0 4.4313 1.98845 4.4313 4.4314v6.76074c-.9658.284-1.7043 1.1362-1.7043 2.2157 0 1.0794.7385 1.9316 1.7043 2.2157zm.5682-9.0901c-.8522 0-1.5908-.6817-1.5908-1.5907 0-.8522.6818-1.5908 1.5908-1.5908.8522 0 1.5907.6818 1.5907 1.5908 0 .8522-.7385 1.5907-1.5907 1.5907zm5.0563-6.93114c-1.1931 0-2.1021.96584-2.1021 2.10204 0 1.1931.9659 2.1021 2.1021 2.1021 1.1363 0 2.1021-.9658 2.1021-2.1021.0568-1.1362-.909-2.10204-2.1021-2.10204zm0 3.29514c-.6249 0-1.1362-.5113-1.1362-1.1363 0-.6249.5113-1.1362 1.1362-1.1362s1.1363.5113 1.1363 1.1362c0 .625-.5114 1.1363-1.1363 1.1363z" fill="#005cb9" fill-rule="evenodd"/><path d="m30.3948 49.1284c-1.9316-1.0226-3.4088-2.4997-4.4882-4.3177-1.0794-1.8181-1.6476-3.9201-1.6476-6.2494 0-2.3294.5682-4.3746 1.6476-6.2495 1.0794-1.818 2.6134-3.2951 4.4882-4.3177 1.9316-1.0795 4.0905-1.5908 6.4199-1.5908 1.8748 0 3.5223.2841 5.1131.909 1.534.625 2.8406 1.534 3.9201 2.7838l-2.2157 2.1589c-1.7612-1.8748-4.0337-2.8406-6.7039-2.8406-1.7612 0-3.352.3977-4.7723 1.1931-1.4203.7953-2.5566 1.8748-3.3519 3.2951-.7954 1.3635-1.1931 2.9543-1.1931 4.6587 0 1.7043.3977 3.2951 1.1931 4.6586.7953 1.3635 1.9316 2.4998 3.3519 3.2951 1.4203.7954 3.0111 1.1931 4.7723 1.1931 2.6702 0 4.8859-.9658 6.7039-2.8406l2.2157 2.1589c-1.0795 1.193-2.3861 2.1588-3.9769 2.7838-1.534.6249-3.2383.9658-5.1132.9658-2.3293-.0568-4.4882-.6249-6.363-1.6476z" fill="#002554"/><path d="m64.596 34.1303c1.3067 1.1931 1.9884 3.0679 1.9884 5.454v10.8513h-3.0678v-2.3862c-.5682.8522-1.3067 1.4772-2.3294 1.9317-1.0226.4545-2.2157.6817-3.5792.6817-1.9884 0-3.636-.5113-4.8291-1.4771-1.193-.9658-1.818-2.2725-1.818-3.8065 0-1.5339.5682-2.8406 1.7044-3.8064 1.1363-.9658 3.0111-1.4204 5.5109-1.4204h5.1699v-.6249c0-1.4203-.3977-2.4997-1.193-3.2383-.7954-.7386-1.9885-1.1363-3.5793-1.1363-1.0794 0-2.102.1705-3.1247.5113-1.0226.3409-1.8748.7954-2.5565 1.4204l-1.3635-2.443c.909-.7386 2.0452-1.3067 3.2951-1.7044 1.3067-.3977 2.6702-.5681 4.0905-.5681 2.4998-.0568 4.3746.5113 5.6813 1.7612zm-3.2383 13.1806c.909-.5682 1.5339-1.3635 1.9884-2.3294v-2.4997h-4.9995c-2.7838 0-4.1473.909-4.1473 2.7838 0 .909.3408 1.5908 1.0226 2.1589.6817.5113 1.6476.7954 2.8974.7954 1.3067-.1137 2.3294-.3977 3.2384-.909z" fill="#002554"/><path d="m89.1962 33.4488c1.3635.7953 2.4429 1.818 3.2383 3.2383.7954 1.3635 1.1931 2.9542 1.1931 4.7723 0 1.818-.3977 3.4087-1.1931 4.7722s-1.8748 2.443-3.2383 3.2384c-1.3635.7953-2.9543 1.1362-4.6587 1.1362-1.3066 0-2.4429-.2272-3.5224-.7386-1.0794-.5113-1.9884-1.193-2.727-2.1588v14.4304h-3.2383v-29.6563h3.1247v2.8407c.7386-1.0227 1.6476-1.7612 2.727-2.2725 1.0795-.5114 2.3294-.7386 3.636-.7386 1.7612 0 3.2952.3409 4.6587 1.1363zm-1.818 13.5214c.909-.5113 1.6475-1.2499 2.1589-2.2157.5113-.9658.7953-2.0453.7953-3.2951 0-1.2499-.284-2.3294-.7953-3.2952-.5114-.9658-1.2499-1.7044-2.1589-2.2157s-1.9317-.7954-3.1247-.7954c-1.1363 0-2.1589.2841-3.0679.7954s-1.6476 1.2499-2.1589 2.2157-.7954 2.0453-.7954 3.2952c0 1.2498.2841 2.3293.7954 3.2951s1.2499 1.7044 2.1589 2.2157 1.9316.7954 3.0679.7954c1.1362 0 2.2157-.2273 3.1247-.7954z" fill="#002554"/><path d="m106.126 33.1079c1.08-.5681 2.443-.7954 4.034-.7954v3.1247c-.171 0-.455-.0568-.739-.0568-1.761 0-3.124.5113-4.147 1.5907-1.023 1.0795-1.534 2.5566-1.534 4.4883v8.9764h-3.238v-17.9529h3.124v3.0111c.569-1.0794 1.421-1.818 2.5-2.3861z" fill="#002554"/><path d="m116.523 32.4824h3.238v17.9529h-3.238z" fill="#002554"/><path d="m131.294 49.47c-1.42-.7954-2.556-1.8749-3.352-3.2952-.795-1.3635-1.193-2.9542-1.193-4.7154s.398-3.352 1.193-4.7155c.796-1.3635 1.932-2.4998 3.352-3.2383 1.421-.7954 3.068-1.1931 4.886-1.1931 1.648 0 3.068.3409 4.375.9658 1.25.6818 2.272 1.5908 2.954 2.8407l-2.5 1.5907c-.568-.8522-1.25-1.4771-2.102-1.9316s-1.761-.625-2.784-.625c-1.193 0-2.215.2841-3.181.7954s-1.648 1.2499-2.216 2.2157c-.511.9658-.795 2.0453-.795 3.2952 0 1.2498.284 2.3861.795 3.3519s1.25 1.7044 2.216 2.2157 1.988.7954 3.181.7954c1.023 0 1.932-.2273 2.784-.625.852-.4545 1.534-1.0794 2.102-1.9316l2.5 1.534c-.682 1.2498-1.704 2.2157-2.954 2.8406-1.25.6817-2.727 1.0226-4.375 1.0226-1.818 0-3.465-.3977-4.886-1.193z" fill="#002554"/><path d="m152.713 49.47c-1.421-.7954-2.557-1.8749-3.352-3.2952-.796-1.3635-1.193-2.9542-1.193-4.7154s.397-3.352 1.193-4.7155c.795-1.3635 1.931-2.4998 3.352-3.2383 1.42-.7954 3.011-1.1931 4.829-1.1931s3.409.3977 4.772 1.1931c1.42.7953 2.5 1.8748 3.295 3.2383.796 1.3635 1.193 2.9543 1.193 4.7155s-.397 3.3519-1.193 4.7154c-.795 1.3635-1.931 2.4998-3.295 3.2952-1.363.7953-3.011 1.193-4.772 1.193s-3.409-.3977-4.829-1.193zm7.897-2.4998c.909-.5113 1.647-1.2499 2.159-2.2157.511-.9658.795-2.0453.795-3.2951 0-1.2499-.284-2.3294-.795-3.2952-.512-.9658-1.25-1.7044-2.159-2.2157s-1.932-.7954-3.125-.7954c-1.136 0-2.159.2841-3.125.7954s-1.647 1.2499-2.159 2.2157c-.511.9658-.795 2.0453-.795 3.2952 0 1.2498.284 2.3293.795 3.2951.512.9658 1.25 1.7044 2.159 2.2157s1.932.7954 3.125.7954 2.216-.2273 3.125-.7954z" fill="#002554"/><path d="m179.358 33.1079c1.079-.5681 2.443-.7954 4.034-.7954v3.1247c-.171 0-.455-.0568-.739-.0568-1.761 0-3.125.5113-4.147 1.5907-1.023 1.0795-1.534 2.5566-1.534 4.4883v8.9764h-3.239v-17.9529h3.125v3.0111c.568-1.0794 1.42-1.818 2.5-2.3861z" fill="#002554"/><g fill="#005cb9"><path d="m174.131 55.8892v-2.1588h-.795v-.2841h1.988v.2841h-.795v2.1588z"/><path d="m175.608 55.8894v-2.4998h.512l.568 1.7612c.057.1705.113.2841.113.3409 0-.1136.057-.2272.114-.3977l.568-1.7044h.455v2.4998h-.341v-2.0452l-.739 2.0452h-.284l-.738-2.1021v2.1021z"/><path d="m84.4806 55.0367h-2.7838v-.5113h6.0789v.5113h-2.7838v7.1584h-.5681v-7.1584z"/><path d="m95.3888 57.0254c.3977.3977.6249 1.0226.6249 1.818v3.3519h-.5681v-3.2951c0-.6249-.1705-1.1363-.5113-1.4771-.3409-.3409-.7954-.5113-1.3635-.5113-.6818 0-1.1931.2272-1.5908.6249s-.5681.9658-.5681 1.6476v3.0679h-.5681v-8.1243h.5681v3.5792c.1704-.3977.5113-.6817.8522-.909.3977-.2272.8522-.3409 1.3635-.3409.7954-.0568 1.3635.1705 1.7612.5682z"/><path d="m104.99 59.4685h-4.943c0 .4545.114.8521.341 1.193s.511.625.852.7954.796.2841 1.193.2841c.398 0 .739-.0568 1.023-.2273.341-.1136.568-.3409.795-.6249l.341.3409c-.227.284-.568.5113-.909.6817-.397.1704-.795.2272-1.193.2272-.568 0-1.079-.1136-1.534-.3976-.454-.2273-.795-.5682-1.0224-1.0227-.2273-.4545-.3977-.9658-.3977-1.4771 0-.5681.1136-1.0794.3409-1.4771.2272-.4545.5682-.7954.9662-1.0227.397-.2272.909-.3976 1.42-.3976s.966.1136 1.42.3408c.398.2273.739.5682.966 1.0227s.341.909.341 1.4771zm-3.807-2.2726c-.34.1705-.568.4545-.795.7386-.17.3409-.284.6818-.341 1.0794h4.375c0-.3976-.114-.7953-.341-1.0794-.171-.3409-.455-.5681-.795-.7386-.341-.1704-.682-.284-1.08-.284-.341 0-.738.0568-1.023.284z"/><path d="m109.876 56.7413c.398-.2273.852-.3409 1.364-.3409v.5113h-.114c-.625 0-1.136.1704-1.477.6249-.341.3977-.512.9659-.512 1.6476v2.9543h-.568v-5.7381h.512v1.2499c.17-.3409.454-.6818.795-.909z"/><path d="m118.171 56.9685c.397.3409.568.909.568 1.5908v3.636h-.512v-1.0226c-.17.3408-.454.6249-.795.7953-.341.1705-.795.2841-1.25.2841-.625 0-1.136-.1704-1.534-.4545-.341-.2841-.568-.6818-.568-1.1931 0-.4545.171-.8522.511-1.1362.341-.2841.909-.4545 1.648-.4545h1.988v-.4545c0-.5113-.17-.9658-.454-1.1931-.284-.2841-.739-.3977-1.25-.3977-.398 0-.739.0568-1.079.1705-.341.1136-.625.284-.909.5113l-.284-.3977c.284-.2273.624-.4545 1.022-.625.398-.1704.796-.2272 1.25-.2272.739 0 1.25.2272 1.648.5681zm-.739 4.4882c.341-.2272.568-.5113.739-.9658v-1.0794h-1.932c-.568 0-.966.1136-1.193.284-.227.1705-.398.5113-.398.8522 0 .3977.114.6818.398.909.284.2273.682.3409 1.193.3409.454 0 .852-.1136 1.193-.3409z"/><path d="m127.147 56.7982c.454.2272.795.5681 1.022 1.0226.228.4545.341.9658.341 1.4771 0 .5682-.113 1.0795-.341 1.534-.227.4545-.568.7954-1.022 1.0226-.455.2273-.909.3409-1.42.3409-.512 0-.966-.1136-1.364-.3409-.398-.2272-.739-.5681-.966-.9658v3.4088h-.568v-7.8402h.511v1.3635c.228-.4545.569-.7954.966-1.0226.398-.2273.852-.3409 1.364-.3409.568-.0568 1.079.1136 1.477.3409zm-.284 4.6018c.341-.2272.625-.5113.852-.8522s.284-.7954.284-1.2499-.114-.909-.284-1.2498c-.227-.3409-.454-.625-.852-.8522-.341-.2273-.739-.2841-1.193-.2841-.455 0-.852.1136-1.193.2841-.341.2272-.625.5113-.796.8522-.227.3408-.284.7953-.284 1.2498s.114.909.284 1.2499c.228.3409.455.625.796.8522.341.2273.738.2841 1.193.2841.454.0568.852-.0568 1.193-.2841z"/><path d="m136.919 59.4685h-4.943c0 .4545.114.8521.341 1.193s.511.625.852.7954.796.2841 1.193.2841c.398 0 .739-.0568 1.023-.2273.341-.1136.568-.3409.795-.6249l.341.3409c-.227.284-.568.5113-.909.6817-.398.1704-.795.2272-1.193.2272-.568 0-1.079-.1136-1.534-.3976-.454-.2273-.795-.5682-1.022-1.0227-.228-.4545-.398-.9658-.398-1.4771 0-.5681.113-1.0794.341-1.4771.227-.4545.568-.7954.966-1.0227.397-.2272.909-.3976 1.42-.3976s.966.1136 1.42.3408c.398.2273.739.5682.966 1.0227s.341.909.341 1.4771zm-3.807-2.2726c-.34.1705-.568.4545-.795.7386-.17.3409-.284.6818-.341 1.0794h4.375c0-.3976-.114-.7953-.341-1.0794-.171-.3409-.455-.5681-.796-.7386-.34-.1704-.681-.284-1.079-.284-.341 0-.682.0568-1.023.284z"/><path d="m145.497 56.4574v5.7381h-.511v-1.2499c-.17.3977-.454.7385-.852.909-.398.2272-.795.3409-1.307.3409-.738 0-1.306-.2273-1.761-.625-.398-.3977-.625-1.0226-.625-1.818v-3.3519h.568v3.2951c0 .6249.171 1.1363.512 1.4771.34.3409.795.5114 1.363.5114.625 0 1.136-.2273 1.534-.625s.568-.9658.568-1.6476v-3.0678h.511z"/><path d="m152.542 61.7983c-.113.1136-.284.2272-.511.2841-.227.0568-.398.1136-.625.1136-.511 0-.852-.1136-1.136-.3977s-.398-.6818-.398-1.1363v-3.7496h-1.079v-.4545h1.079v-1.2499h.568v1.2499h1.818v.4545h-1.818v3.6928c0 .3977.114.6818.284.8522.171.1705.455.2841.796.2841s.625-.1136.909-.3409z"/><path d="m155.894 54.9241c-.113-.0568-.113-.1704-.113-.2841 0-.1136.056-.2272.113-.3408.114-.1137.171-.1137.341-.1137.114 0 .227.0569.341.1137s.114.1704.114.284c0 .1137-.057.2273-.114.3409-.114.1136-.171.1136-.341.1136-.17.0569-.284 0-.341-.1136zm0 1.534h.568v5.738h-.568z"/><path d="m161.405 61.8552c-.454-.2272-.795-.5681-1.022-1.0226-.228-.4545-.398-.9658-.398-1.4771 0-.5682.113-1.0795.398-1.534.227-.4545.568-.7954 1.022-1.0226.455-.2273.909-.3409 1.477-.3409.455 0 .853.1136 1.25.2841.398.1704.682.4545.909.7954l-.397.284c-.228-.284-.455-.5113-.739-.6249-.284-.1705-.625-.2273-1.023-.2273-.454 0-.852.1137-1.193.2841-.341.2272-.625.5113-.852.8522s-.284.7954-.284 1.2499.114.909.284 1.2498c.227.3409.455.625.852.8522.341.2273.739.2841 1.193.2841.341 0 .682-.0568 1.023-.2273.284-.1704.568-.3408.739-.6249l.397.2841c-.227.3408-.511.6249-.909.7954-.397.1704-.795.284-1.25.284-.511 0-1.022-.1704-1.477-.3977z"/><path d="m168.734 62.0249c-.398-.1137-.739-.3409-.966-.5114l.227-.4545c.228.1705.512.3409.909.5113.341.1137.739.1705 1.137.1705.568 0 1.022-.1136 1.249-.2841.285-.1704.398-.4545.398-.7954 0-.2272-.057-.4545-.227-.5681-.171-.1136-.341-.2272-.568-.284-.227-.0569-.512-.1137-.909-.2273-.455-.0568-.796-.1704-1.08-.2841-.284-.1136-.511-.2272-.738-.4545-.171-.2272-.284-.5113-.284-.8522 0-.4545.17-.8521.568-1.1362.397-.2841.909-.4545 1.591-.4545.34 0 .738.0568 1.079.1704.341.1137.625.2273.852.3977l-.227.4545c-.227-.1704-.511-.284-.795-.3977-.284-.1136-.625-.1136-.909-.1136-.512 0-.909.1136-1.193.2841-.285.1704-.398.4545-.398.7953 0 .2841.057.4545.227.625.171.1704.341.2272.568.3409.227.0568.512.1704.909.2272.455.0568.796.1705 1.08.2841s.511.2272.681.4545c.171.2272.284.5113.284.8522 0 .4545-.17.8522-.568 1.1362-.397.2841-.965.4545-1.647.4545-.398-.1136-.852-.2272-1.25-.3408z"/></g></svg>