<svg xmlns="http://www.w3.org/2000/svg" aria-label="Logotype" viewBox="0 0 150 85" data-fc-idx="0"><svg viewBox="0 0 150 85"><path d="M113.052 57.1954L115.83 50.2343L118.574 57.1954H113.052ZM109.27 66.8675L111.011 62.4833H120.482L122.256 66.8675H129.552L119.11 42.1687H112.55L102.108 66.8675H109.27ZM91.9679 67.3025C97.925 67.3025 101.874 64.324 101.874 59.3039V59.2369C101.874 54.6519 98.3601 52.8447 92.7376 51.6064C89.3574 50.8367 88.4873 50.3347 88.4873 49.2302V49.1633C88.4873 48.2932 89.2905 47.5904 90.9304 47.5904C93.1058 47.5904 95.5489 48.427 97.7912 50L101.171 45.2142C98.5275 43.0723 95.2477 41.9679 91.0977 41.9679C85.2075 41.9679 81.593 45.2477 81.593 49.7992V49.8661C81.593 54.9197 85.6091 56.3922 90.83 57.5636C94.1432 58.3333 94.9465 58.9023 94.9465 59.9063V59.9732C94.9465 61.0107 93.9759 61.6466 92.1352 61.6466C89.2905 61.6466 86.6131 60.6426 84.17 58.7015L80.3882 63.2195C83.4003 65.9304 87.5167 67.2691 91.8675 67.2691M54.4846 66.8675H61.2115V53.4136L71.6868 66.8675H77.6439V42.3695H70.917V55.3213L60.8434 42.3695H54.5181V66.8675H54.4846ZM35.5756 57.1954L38.3534 50.2343L41.0977 57.1954H35.5756ZM31.8273 66.8675L33.5676 62.4833H43.0388L44.8126 66.8675H52.1084L41.6667 42.1687H35.1071L24.6653 66.8675H31.8273ZM0 66.8675H6.79384V57.5636H15.5288V66.8675H22.3226V42.3695H15.5288V51.5395H6.79384V42.3695H0V66.8675ZM122.155 81.091L124.398 76.1044L126.64 81.091H122.155ZM119.411 84.672H120.549L121.72 82.095H127.042L128.179 84.672H129.384L124.933 74.7992H123.896L119.444 84.672H119.411ZM103.012 84.672H104.083V76.7403L107.664 81.9612H107.731L111.312 76.7068V84.6386H112.416V74.8327H111.278L107.697 80.1874L104.116 74.8327H103.012V84.672ZM88.8889 79.8527V75.8701H91.9009C93.4739 75.8701 94.411 76.6064 94.411 77.8112C94.411 79.083 93.3735 79.8527 91.9009 79.8527H88.8889ZM88.8889 84.672V80.8568H91.7001L94.5449 84.672H95.8835L92.8715 80.656C94.411 80.3882 95.5154 79.4177 95.5154 77.8112C95.5154 77.008 95.2477 76.3387 94.7457 75.8367C94.1432 75.2343 93.1727 74.8661 91.9679 74.8661H87.751V84.672H88.8889ZM73.494 81.091L75.7363 76.1044L77.9786 81.091H73.494ZM70.7831 84.672H71.921L73.0924 82.095H78.4137L79.5515 84.672H80.7564L76.3052 74.7992H75.2677L70.7831 84.672ZM55.8568 84.672H56.9612V80.2543H62.6171V84.672H63.7216V74.8661H62.6171V79.2169H56.9612V74.8661H55.8568V84.672ZM42.5033 80.1874V75.8701H44.9799C46.5529 75.8701 47.6238 76.6064 47.6238 78.012C47.6238 79.3173 46.5529 80.1874 44.9465 80.1874H42.5033ZM42.5033 84.672V81.2249H44.8795C46.9545 81.2249 48.7282 80.1205 48.7282 78.012C48.7282 76.0709 47.2892 74.8661 45.0469 74.8661H41.3655V84.672H42.5033ZM28.9826 83.8019C26.7403 83.8019 25.1339 81.9946 25.1339 79.7523C25.1339 77.51 26.7403 75.7028 28.9826 75.7028C31.2249 75.7028 32.8313 77.51 32.8313 79.7523C32.8313 81.9946 31.2249 83.8019 28.9826 83.8019ZM28.9491 84.8394C31.9277 84.8394 33.9692 82.4632 33.9692 79.7858C33.9692 77.075 31.9612 74.7323 28.9826 74.7323C26.004 74.7323 23.9625 77.1084 23.9625 79.7858C23.9625 82.4967 25.9706 84.8394 28.9491 84.8394ZM15.328 84.672H16.4324V74.8661H15.328V84.672ZM1.10442 83.668V80.2209H4.1834C5.89023 80.2209 6.79384 80.8233 6.79384 81.8942C6.79384 82.9987 5.85676 83.668 4.3842 83.668H1.10442ZM1.10442 79.2503V75.8701H4.083C5.48862 75.8701 6.25837 76.506 6.25837 77.4766C6.25837 78.6479 5.32129 79.2503 4.01606 79.2503H1.10442ZM0 84.672H4.35074C6.49264 84.672 7.89826 83.668 7.89826 81.9946C7.89826 80.6225 6.96118 79.9531 5.78983 79.585C6.55957 79.2503 7.32932 78.581 7.32932 77.3092C7.32932 76.6399 7.09505 76.1379 6.69344 75.7028C6.1245 75.1673 5.25435 74.8327 4.14993 74.8327H0V84.672Z" fill="#4C4184"/>
<path d="M133.877 65.0378H134.232C134.309 65.0378 134.381 65.0361 134.447 65.0328C134.517 65.0261 134.579 65.0111 134.632 64.9878C134.686 64.9645 134.727 64.9295 134.757 64.8828C134.791 64.8328 134.807 64.7645 134.807 64.6778C134.807 64.6045 134.792 64.5461 134.762 64.5028C134.736 64.4595 134.699 64.4261 134.652 64.4028C134.609 64.3795 134.557 64.3645 134.497 64.3578C134.441 64.3478 134.384 64.3428 134.327 64.3428H133.877V65.0378ZM133.537 64.0678H134.382C134.642 64.0678 134.834 64.1195 134.957 64.2228C135.084 64.3261 135.147 64.4828 135.147 64.6928C135.147 64.8895 135.092 65.0345 134.982 65.1278C134.872 65.2178 134.736 65.2711 134.572 65.2878L135.197 66.2528H134.832L134.237 65.3128H133.877V66.2528H133.537V64.0678ZM132.722 65.1528C132.722 65.3828 132.761 65.5961 132.837 65.7928C132.917 65.9861 133.026 66.1545 133.162 66.2978C133.302 66.4411 133.466 66.5545 133.652 66.6378C133.842 66.7178 134.047 66.7578 134.267 66.7578C134.484 66.7578 134.686 66.7178 134.872 66.6378C135.059 66.5545 135.221 66.4411 135.357 66.2978C135.497 66.1545 135.606 65.9861 135.682 65.7928C135.762 65.5961 135.802 65.3828 135.802 65.1528C135.802 64.9295 135.762 64.7211 135.682 64.5278C135.606 64.3345 135.497 64.1678 135.357 64.0278C135.221 63.8845 135.059 63.7728 134.872 63.6928C134.686 63.6095 134.484 63.5678 134.267 63.5678C134.047 63.5678 133.842 63.6095 133.652 63.6928C133.466 63.7728 133.302 63.8845 133.162 64.0278C133.026 64.1678 132.917 64.3345 132.837 64.5278C132.761 64.7211 132.722 64.9295 132.722 65.1528ZM132.382 65.1528C132.382 64.8895 132.432 64.6445 132.532 64.4178C132.632 64.1911 132.767 63.9945 132.937 63.8278C133.111 63.6611 133.311 63.5311 133.537 63.4378C133.767 63.3411 134.011 63.2928 134.267 63.2928C134.524 63.2928 134.766 63.3411 134.992 63.4378C135.219 63.5311 135.417 63.6611 135.587 63.8278C135.757 63.9945 135.892 64.1911 135.992 64.4178C136.092 64.6445 136.142 64.8895 136.142 65.1528C136.142 65.4228 136.092 65.6728 135.992 65.9028C135.892 66.1295 135.757 66.3278 135.587 66.4978C135.417 66.6645 135.219 66.7945 134.992 66.8878C134.766 66.9811 134.524 67.0278 134.267 67.0278C134.011 67.0278 133.767 66.9811 133.537 66.8878C133.311 66.7945 133.111 66.6645 132.937 66.4978C132.767 66.3278 132.632 66.1295 132.532 65.9028C132.432 65.6728 132.382 65.4228 132.382 65.1528Z" fill="#4C4184"/>
<path d="M149.197 27.2758L150 33.0991L128.581 29.1165L128.481 23.996L147.825 11.7135L148.26 17.0683L146.821 17.9384L134.839 25.2008M135.81 3.38019L132.631 0.468541L123.728 18.6412L127.309 21.7872L146.754 8.80188L142.805 6.3253L141.098 7.53012L130.02 15.0268M106.158 28.6479L99.8327 32.4632L96.4859 34.4712L96.1513 38.1526L110.107 29.8193L110.04 25.8367L96.7537 23.3266L96.921 26.9746M109.304 19.3775L107.229 13.2195L105.823 9.06961L109.103 6.19143L113.788 19.8126L110.776 23.1593L97.423 20.4485L99.5315 17.336M116.031 3.74833L116.466 5.12048L118.976 13.0857L124.565 1.40562L124.933 0.602409L129.719 0L121.084 18.34L116.332 18.842L111.78 4.85275L115.997 3.78179L116.031 3.74833ZM148.795 36.0442L127.878 31.7604L123.929 36.2115L132.631 55.7229L136.847 50.6024L136.379 49.6319L130.723 37.9853L142.604 40.8635L144.478 41.2651L148.762 36.0442H148.795Z" fill="#ED8B00"/></svg></svg>